REM DIRINDEX 1\2,1\3,1\4,1\5,1\6
REM DIRNAME cjc129,folder01,folder02,folder03,folder04,folder05
TITLE ""
FILE "DISC3Track11.mp3" MP3
  TRACK 01 AUDIO
    TITLE "0:"
    INDEX 01 00:00:00
  TRACK 02 AUDIO
    TITLE "3:cjc129_2337"
    INDEX 01 00:00:09
  TRACK 03 AUDIO
    TITLE "0:"
    INDEX 01 00:01:19
  TRACK 04 AUDIO
    TITLE "5:cjc129_2338"
    INDEX 01 00:01:54
  TRACK 05 AUDIO
    TITLE "0:"
    INDEX 01 00:04:62
  TRACK 06 AUDIO
    TITLE "4:cjc129_2339"
    INDEX 01 00:05:59
  TRACK 07 AUDIO
    TITLE "0:"
    INDEX 01 00:06:71
  TRACK 08 AUDIO
    TITLE "6:cjc129_2340"
    INDEX 01 00:07:29
  TRACK 09 AUDIO
    TITLE "0:"
    INDEX 01 00:11:68
  TRACK 10 AUDIO
    TITLE "3:cjc129_2341"
    INDEX 01 00:13:43
  TRACK 11 AUDIO
    TITLE "0:"
    INDEX 01 00:14:54
  TRACK 12 AUDIO
    TITLE "5:cjc129_2342"
    INDEX 01 00:15:11
  TRACK 13 AUDIO
    TITLE "0:"
    INDEX 01 00:20:02
  TRACK 14 AUDIO
    TITLE "4:cjc129_2343"
    INDEX 01 00:20:67
  TRACK 15 AUDIO
    TITLE "0:"
    INDEX 01 00:22:01
  TRACK 16 AUDIO
    TITLE "6:cjc129_2344"
    INDEX 01 00:22:36
  TRACK 17 AUDIO
    TITLE "0:"
    INDEX 01 00:26:34
  TRACK 18 AUDIO
    TITLE "3:cjc129_2345"
    INDEX 01 00:28:13
  TRACK 19 AUDIO
    TITLE "0:"
    INDEX 01 00:29:23
  TRACK 20 AUDIO
    TITLE "5:cjc129_2346"
    INDEX 01 00:29:52
  TRACK 21 AUDIO
    TITLE "0:"
    INDEX 01 00:35:35
  TRACK 22 AUDIO
    TITLE "4:cjc129_2347"
    INDEX 01 00:36:27
  TRACK 23 AUDIO
    TITLE "0:"
    INDEX 01 00:37:38
  TRACK 24 AUDIO
    TITLE "6:cjc129_2348"
    INDEX 01 00:37:67
  TRACK 25 AUDIO
    TITLE "0:"
    INDEX 01 00:42:14
  TRACK 26 AUDIO
    TITLE "3:cjc129_2349"
    INDEX 01 00:43:66
  TRACK 27 AUDIO
    TITLE "0:"
    INDEX 01 00:45:04
  TRACK 28 AUDIO
    TITLE "5:cjc129_2350"
    INDEX 01 00:45:37
  TRACK 29 AUDIO
    TITLE "0:"
    INDEX 01 00:51:11
  TRACK 30 AUDIO
    TITLE "4:cjc129_2351"
    INDEX 01 00:52:02
  TRACK 31 AUDIO
    TITLE "0:"
    INDEX 01 00:53:15
  TRACK 32 AUDIO
    TITLE "6:cjc129_2352"
    INDEX 01 00:53:49
  TRACK 33 AUDIO
    TITLE "0:"
    INDEX 01 00:58:13
  TRACK 34 AUDIO
    TITLE "3:cjc129_2353"
    INDEX 01 00:59:63
  TRACK 35 AUDIO
    TITLE "0:"
    INDEX 01 01:00:72
  TRACK 36 AUDIO
    TITLE "5:cjc129_2354"
    INDEX 01 01:01:29
  TRACK 37 AUDIO
    TITLE "0:"
    INDEX 01 01:08:05
  TRACK 38 AUDIO
    TITLE "4:cjc129_2355"
    INDEX 01 01:08:72
  TRACK 39 AUDIO
    TITLE "0:"
    INDEX 01 01:10:04
  TRACK 40 AUDIO
    TITLE "6:cjc129_2356"
    INDEX 01 01:10:37
  TRACK 41 AUDIO
    TITLE "0:"
    INDEX 01 01:14:41
  TRACK 42 AUDIO
    TITLE "3:cjc129_2357"
    INDEX 01 01:16:16
  TRACK 43 AUDIO
    TITLE "0:"
    INDEX 01 01:17:33
  TRACK 44 AUDIO
    TITLE "5:cjc129_2358"
    INDEX 01 01:19:07
  TRACK 45 AUDIO
    TITLE "0:"
    INDEX 01 01:22:56
  TRACK 46 AUDIO
    TITLE "4:cjc129_2359"
    INDEX 01 01:23:48
  TRACK 47 AUDIO
    TITLE "0:"
    INDEX 01 01:24:65
  TRACK 48 AUDIO
    TITLE "6:cjc129_2360"
    INDEX 01 01:25:23
  TRACK 49 AUDIO
    TITLE "0:"
    INDEX 01 01:29:17
  TRACK 50 AUDIO
    TITLE "3:cjc129_2361"
    INDEX 01 01:30:67
  TRACK 51 AUDIO
    TITLE "0:"
    INDEX 01 01:32:08
  TRACK 52 AUDIO
    TITLE "5:cjc129_2362"
    INDEX 01 01:33:42
  TRACK 53 AUDIO
    TITLE "0:"
    INDEX 01 01:38:49
  TRACK 54 AUDIO
    TITLE "4:cjc129_2363"
    INDEX 01 01:39:41
  TRACK 55 AUDIO
    TITLE "0:"
    INDEX 01 01:40:56
  TRACK 56 AUDIO
    TITLE "6:cjc129_2364"
    INDEX 01 01:41:18
  TRACK 57 AUDIO
    TITLE "0:"
    INDEX 01 01:45:32
  TRACK 58 AUDIO
    TITLE "3:cjc129_2365"
    INDEX 01 01:47:07
  TRACK 59 AUDIO
    TITLE "0:"
    INDEX 01 01:48:16
  TRACK 60 AUDIO
    TITLE "5:cjc129_2366"
    INDEX 01 01:48:48
  TRACK 61 AUDIO
    TITLE "0:"
    INDEX 01 01:54:25
  TRACK 62 AUDIO
    TITLE "4:cjc129_2367"
    INDEX 01 01:55:15
  TRACK 63 AUDIO
    TITLE "0:"
    INDEX 01 01:56:22
  TRACK 64 AUDIO
    TITLE "6:cjc129_2368"
    INDEX 01 01:56:53
  TRACK 65 AUDIO
    TITLE "0:"
    INDEX 01 02:00:14
  TRACK 66 AUDIO
    TITLE "3:cjc129_2369"
    INDEX 01 02:01:66
  TRACK 67 AUDIO
    TITLE "0:"
    INDEX 01 02:03:00
  TRACK 68 AUDIO
    TITLE "5:cjc129_2370"
    INDEX 01 02:03:32
  TRACK 69 AUDIO
    TITLE "0:"
    INDEX 01 02:07:08
  TRACK 70 AUDIO
    TITLE "4:cjc129_2371"
    INDEX 01 02:08:01
  TRACK 71 AUDIO
    TITLE "0:"
    INDEX 01 02:09:11
  TRACK 72 AUDIO
    TITLE "6:cjc129_2372"
    INDEX 01 02:09:42
  TRACK 73 AUDIO
    TITLE "0:"
    INDEX 01 02:14:10
